<?xml version="1.0" encoding="UTF-8"?>
<svg id="Layer_2" data-name="Layer 2" xmlns="http://www.w3.org/2000/svg" viewBox="0 0 611 590.07">
  <g id="Layer_1-2" data-name="Layer 1">
    <path d="M15.14,590c.76-.16,1.52-.46,2.28-.47,12.6-.03,25.2-.03,37.8,0,.76,0,1.52.3,2.28.47H15.14Z" fill="#fefefe" stroke-width="0"/>
    <path d="M361.26,590c.68-.16,1.35-.46,2.03-.47,9.19-.03,18.39-.03,27.58,0,.68,0,1.35.3,2.03.47h-31.64Z" fill="#fefefe" stroke-width="0"/>
    <path d="M276.56,590c.6-.16,1.19-.46,1.79-.47,6.92-.03,13.85-.03,20.77,0,.6,0,1.19.3,1.79.47h-24.34Z" fill="#fefefe" stroke-width="0"/>
    <path d="M219.6,590c.6-.16,1.19-.46,1.79-.47,6.6-.03,13.2-.03,19.8,0,.6,0,1.19.3,1.79.47h-23.37Z" fill="#fefefe" stroke-width="0"/>
    <path d="M474.69,590c.51-.16,1.03-.46,1.54-.47,6.27-.03,12.55-.03,18.82,0,.52,0,1.03.3,1.54.47h-21.91Z" fill="#fefefe" stroke-width="0"/>
    <path d="M110.55,590c.59-.16,1.19-.46,1.78-.47,4.65-.04,9.31-.04,13.97,0,.59,0,1.19.3,1.78.47h-17.53Z" fill="#fefefe" stroke-width="0"/>
    <path d="M591.04,590c1.15-.16,2.31-.48,3.46-.46,3.72.08,7.43.3,11.15.46h-14.6Z" fill="#fefefe" stroke-width="0"/>
    <path d="M316.96,590c2.99-.16,5.99-.41,8.98-.45,1.71-.02,3.42.29,5.14.45h-14.12Z" fill="#fefefe" stroke-width="0"/>
    <path d="M.05,344.65c.16,2.99.41,5.99.45,8.98.02,1.71-.29,3.42-.45,5.14,0-4.71,0-9.41,0-14.12Z" fill="#fefefe" stroke-width="0"/>
    <path d="M246.37,590c3.47-.16,6.94-.36,10.41-.46.75-.02,1.5.3,2.25.46h-12.66Z" fill="#fefefe" stroke-width="0"/>
    <path d="M606.62,590c1.46-.16,2.92-.32,4.38-.49-1.46.16-2.92.32-4.38.49Z" fill="#fefefe" stroke-width="0"/>
    <path d="M.05,588.54c.81.49,1.62.97,2.43,1.46-.91-.33-2.8.99-2.43-1.46Z" fill="#fefefe" stroke-width="0"/>
    <path d="M468.38,308.63c-1,3.53-2,7.07-2.99,10.6-1.32,3.04-2.64,6.09-3.96,9.13-2.1,4.58-4.08,9.23-6.36,13.73-1.17,2.31-2.95,4.31-4.32,6.53-1.42,2.31-2.46,4.87-4.04,7.05-2.1,2.91-4.48,5.62-6.86,8.31-4.67,5.27-9.29,10.59-14.17,15.66-5.9,6.13-13.06,9.94-21.61,11.25-5.16.79-10.1.26-15.07-.96-1.95-.79-3.89-1.58-5.84-2.36-18.59-9.61-24.85-33.41-13.32-50.92,1.69-2.56,3.61-5.01,5.73-7.23,14.09-14.74,22.26-32.32,25.15-52.39,7.11-49.44-28.28-97.93-78.14-106.97-39.14-7.1-71.4,6.2-96.23,37.05-13.7,17.01-20.56,36.93-21.34,58.65-.71,19.76-.6,39.56-.65,59.35-.09,36.66-.03,73.33-.03,109.99-.08.68-.15,1.35-.23,2.03-.42,2.7-.35,5.59-1.37,8.04-1.33,3.19-3.51,6.03-5.34,9.01-.37.61-.81,1.19-1.21,1.78-4.34,4.88-9.64,8.36-15.66,10.81-.28.03-.55.06-.83.09-.68.3-1.36.6-2.04.91-.29.02-.59.04-.88.06-.34.13-.67.26-1.01.38-.31.03-.63.05-.94.08-.33,0-.66-.01-.98-.02-.48.03-.96.05-1.45.08-3.9-.18-7.79-.36-11.69-.54-2.4-.83-4.81-1.65-7.21-2.48-2.29-1.48-4.58-2.95-6.87-4.43-1.59-1.59-3.23-3.14-4.76-4.79-.72-.77-1.25-1.72-1.84-2.59-3.21-4.75-5.01-10.06-5.99-15.64-.33-1.88,0-3.88,0-5.82.01-56.77.02-113.55.02-170.32,0-4.29-.22-8.59-.07-12.87.12-3.26.61-6.51,1.05-9.74.6-4.43,1.2-8.87,1.99-13.27.73-4.07,1.73-8.09,2.56-12.14,1.62-7.85,4.64-15.25,7.66-22.58,6.4-15.54,14.98-29.87,25.95-42.64,5.36-6.24,10.97-12.32,17.02-17.88,9.53-8.75,20.18-15.99,31.61-22.15,15.3-8.25,31.53-13.84,48.51-17.21,14.17-2.81,28.54-3.84,42.97-3.02,23.02,1.31,45.12,6.45,65.98,16.46,2.38,1.14,4.77,2.28,7.15,3.42.21.13.41.27.62.4.1.08.22.11.35.09,2.62,1.52,5.23,3.03,7.85,4.55,1.96,1.26,3.92,2.52,5.88,3.78,1.48,1.09,2.95,2.18,4.43,3.27,7.22,4.77,13.49,10.7,19.63,16.72,10.11,9.9,18.59,21.12,25.74,33.34.52.89,1.14,1.73,1.71,2.6,2.1,4.06,4.19,8.12,6.29,12.18,3.2,9.08,6.65,18.07,9.52,27.25,2.86,9.14,4.63,18.57,5.2,28.15.5,8.55,1.03,17.12.86,25.67-.23,11.19-1.41,22.34-4.06,33.27-.15.62-.13,1.28-.18,1.92-.63,2.44-1.26,4.88-1.89,7.32Z" fill="#de6420" stroke-width="0"/>
    <path d="M401.15,448.35c.52,2.43,1.04,4.86,1.55,7.29.02,1.63.03,3.26.05,4.89-.54,2.79-1.08,5.58-1.62,8.37-.63,1.26-1.27,2.53-1.9,3.79-2.27,4.02-5.55,7.08-9.26,9.73-.81.47-1.62.94-2.42,1.41-5.39,2.61-11.15,2.6-16.96,2.54-14.92-.14-29.85-.03-44.76-.33-2.81-.06-5.59-1.52-8.38-2.33-.96-.45-1.92-.91-2.88-1.36-1.59-1.39-3.18-2.79-4.77-4.18-.42-.42-.84-.84-1.25-1.26-1.59-1.69-3.15-3.41-4.78-5.06-5.13-5.16-10.28-10.3-15.43-15.44-2.6-2.59-5.22-5.16-7.82-7.73-1.16-1.31-2.31-2.62-3.47-3.93-5.79-5.86-11.62-11.68-17.35-17.59-3.84-3.96-7.61-8-11.27-12.12-1.52-1.72-2.69-3.75-4.02-5.64-1.43-2.64-2.86-5.28-4.29-7.92.02-.13,0-.25-.08-.36l-1.4-2.56c.02-.13,0-.25-.05-.36-.47-1.18-.94-2.36-1.4-3.54.02-.12.01-.24-.03-.35-.63-2.82-1.24-5.65-1.92-8.46-.24-.98-.64-1.92-.97-2.88-.21-2.23-.42-4.46-.63-6.69-.02-27.42-.03-54.83-.05-82.25,1.44-13.26,6.03-25.24,15.15-35.12,14.4-15.6,32.3-21.5,53.24-18.58,25.58,3.57,47.28,27.12,48.53,52.86.76,15.73-4.29,29.31-15.31,40.62-5.77,5.92-11.48,11.91-17.24,17.85-3.78,3.9-3.98,10.52,0,14.31,16.25,15.51,32.62,30.9,48.94,46.33,5.36,5.07,10.72,10.13,16.1,15.18.64.6,1.38,1.08,2.08,1.61,1.63,1.58,3.26,3.16,4.89,4.74.76.64,1.52,1.29,2.28,1.93,1.06,1,2.12,2,3.17,3,1.08,1.58,2.15,3.15,3.23,4.73.84,1.62,1.68,3.24,2.53,4.86Z" fill="#f28e1d" stroke-width="0"/>
    <path d="M233.58,294.04c.02,27.42.03,54.83.05,82.25-.3-.9-.85-1.8-.85-2.7-.05-15.65-.04-31.3-.04-46.95,0-.65,0-1.3,0-1.94,0-1.3,0-2.6,0-3.9,0-.32,0-.65,0-.97,0-8.11,0-16.23,0-24.34,0-.49,0-.97,0-1.46.28,0,.56,0,.84,0Z" fill="#fafcfe" stroke-width="0"/>
    <path d="M180.51,466.78c6.02-2.45,11.32-5.93,15.66-10.81-.3.78-.39,1.77-.93,2.3-2.76,2.7-5.41,5.62-8.57,7.77-1.52,1.03-4.07.54-6.16.74Z" fill="#f7ede4" stroke-width="0"/>
    <path d="M234.26,382.97c.33.96.73,1.9.97,2.88.68,2.81,1.28,5.64,1.92,8.46-1.17-1.41-2.33-2.84-3.52-4.23-1.41-1.64-1.37-3.66.03-5.35.37-.45.41-1.17.6-1.76Z" fill="#f7efe5" stroke-width="0"/>
    <path d="M146.61,460.91c2.29,1.48,4.58,2.95,6.87,4.43-4.25,1.49-5.76.52-6.87-4.43Z" fill="#f7eee6" stroke-width="0"/>
    <path d="M240.11,401.48c1.43,2.64,2.86,5.28,4.29,7.92-3.99-.88-5.71-4.04-4.29-7.92Z" fill="#f8eee3" stroke-width="0"/>
    <path d="M277.04,444.76c1.15,1.31,2.31,2.62,3.47,3.93-.91,2.03-2.51.65-3.34.27-.92-.42-1.43-1.84-1.92-2.92-.06-.13,1.17-.83,1.79-1.27Z" fill="#f8f1ea" stroke-width="0"/>
    <path d="M461.43,328.37c1.32-3.04,2.64-6.09,3.96-9.13-.06,1.3.09,2.66-.22,3.9-.38,1.53-1.06,3-1.77,4.42-.34.68-.66,2.16-1.97.81Z" fill="#f7ece3" stroke-width="0"/>
    <path d="M458.93,185.05c-2.1-4.06-4.19-8.12-6.29-12.18,2.27.24,3.11,1.63,3.62,3.76.51,2.13,1.68,4.09,2.44,6.17.25.68.16,1.5.22,2.25Z" fill="#f8ede5" stroke-width="0"/>
    <path d="M160.69,467.81c3.9.18,7.79.36,11.69.54-.95,2.12-2.91,1.48-4.42,1.33-2.49-.24-5.16-.05-7.27-1.87Z" fill="#f6e5d9" stroke-width="0"/>
    <path d="M389.95,433.83c-1.63-1.58-3.26-3.16-4.89-4.74-.06-.62-.13-1.24-.19-1.86,2.49-.38,4.92,2.83,5.08,6.6Z" fill="#f8f0e6" stroke-width="0"/>
    <path d="M395.26,113.16c-2.62-1.52-5.23-3.03-7.85-4.55,1.47,0,2.98-.24,4.39.03,2.36.45,3.01,2.46,3.45,4.52Z" fill="#f8ede4" stroke-width="0"/>
    <path d="M383.17,387.58c1.95.79,3.89,1.58,5.84,2.36-.34.19-.67.38-1.02.56-3.43,1.71-4.78.89-4.82-2.92Z" fill="#f7ede5" stroke-width="0"/>
    <path d="M314.56,482.35c.96.45,1.92.91,2.88,1.36.11,1.68-.75,2.53-2.29,2-1.88-.65-1.08-2.11-.59-3.36Z" fill="#f7eee6" stroke-width="0"/>
    <path d="M401.15,448.35c-.84-1.62-1.68-3.24-2.53-4.86,1.07.56,2.2,1.05,3.2,1.71,1.29.85.94,2.3-.67,3.15Z" fill="#f7ede2" stroke-width="0"/>
    <path d="M468.38,308.63c.63-2.44,1.26-4.88,1.89-7.32.33.57,1.09,1.32.93,1.69-.81,1.93-1.86,3.76-2.82,5.63Z" fill="#f7eae1" stroke-width="0"/>
    <path d="M405.57,120.21c-1.48-1.09-2.95-2.18-4.43-3.27,1.28.18,2.69.11,3.8.66.52.26.44,1.7.63,2.61Z" fill="#f8ece2" stroke-width="0"/>
    <path d="M399.23,472.68c.63-1.26,1.27-2.53,1.9-3.79.49.41,1.47.99,1.4,1.21-.29.89-.79,1.8-1.47,2.44-.34.33-1.21.11-1.83.13Z" fill="#f8efe6" stroke-width="0"/>
    <path d="M395.4,438.76c-1.06-1-2.12-2-3.17-3,1.01.14,2.06.16,3.03.45.72.22,1.32.8,1.98,1.21-.61.44-1.22.89-1.83,1.33Z" fill="#f8efe5" stroke-width="0"/>
    <path d="M387.55,483.82c.81-.47,1.62-.94,2.42-1.41.87,1.15.78,2.12-.62,2.71-1.22.51-1.86.05-1.81-1.3Z" fill="#f7eee4" stroke-width="0"/>
    <path d="M402.76,460.53c-.02-1.63-.03-3.26-.05-4.89,1.43,1.62,1.35,3.25.05,4.89Z" fill="#f8e6d6" stroke-width="0"/>
    <path d="M308.54,476.91c.42.42.84.84,1.25,1.26-.45.27-.89.54-1.34.81.03-.69.05-1.38.08-2.07Z" fill="#f8ece0" stroke-width="0"/>
    <path d="M237.18,394.66c.47,1.18.94,2.36,1.4,3.54-.47-1.18-.94-2.36-1.4-3.54Z" fill="#f8eee3" stroke-width="0"/>
    <path d="M232.75,294.03c0,.49,0,.97,0,1.46-1.65-.63-1.57-1.56-.37-3.15.19.86.28,1.28.38,1.69Z" fill="#f6efe8" stroke-width="0"/>
    <path d="M204.1,437.14c.08-.68.15-1.35.23-2.03.35.45.71.91,1.06,1.36-.43.22-.86.45-1.29.67Z" fill="#fcfafa" stroke-width="0"/>
    <path d="M238.64,398.56c.47.85.93,1.71,1.4,2.56l-1.4-2.56Z" fill="#f8eee3" stroke-width="0"/>
    <path d="M232.74,324.7c0,.65,0,1.3,0,1.94-1.37-.65-1.37-1.3,0-1.94Z" fill="#f6efe8" stroke-width="0"/>
    <path d="M177.64,467.78c.68-.3,1.36-.6,2.04-.91-.68.3-1.36.6-2.04.91Z" fill="#f7ede4" stroke-width="0"/>
    <path d="M173.83,468.28c.33,0,.66.01.98.02-.33,0-.66-.01-.98-.02Z" fill="#f7ede4" stroke-width="0"/>
    <path d="M232.74,319.83c0,.32,0,.65,0,.97-.25-.2-.49-.4-.74-.6.25-.13.49-.25.74-.38Z" fill="#f6efe8" stroke-width="0"/>
    <path d="M175.75,468.22c.34-.13.67-.26,1.01-.38-.34.13-.67.26-1.01.38Z" fill="#f7ede4" stroke-width="0"/>
    <path d="M387.06,108.53c-.21-.13-.41-.27-.62-.4.21.13.41.27.62.4Z" fill="#f8ede4" stroke-width="0"/>
  </g>
</svg>